<mxfile host="app.diagrams.net" modified="2021-05-25T08:52:35.293Z" agent="5.0 (Macintosh; Intel Mac OS X 10_15_7) AppleWebKit/537.36 (KHTML, like Gecko) Chrome/90.0.4430.93 Safari/537.36" etag="Ncig_pWCqAEWiAJUNp9V" version="14.7.0" type="github">
  <diagram id="ww_l6qgJSow9eSKgI0DT" name="Page-1">
    <mxGraphModel dx="2609" dy="2283" grid="1" gridSize="10" guides="1" tooltips="1" connect="1" arrows="1" fold="1" page="1" pageScale="1" pageWidth="827" pageHeight="1169" math="0" shadow="0">
      <root>
        <mxCell id="0" />
        <mxCell id="1" parent="0" />
        <mxCell id="taET0bbL3NS-2dQEBb5L-3" value="" style="edgeStyle=orthogonalEdgeStyle;rounded=0;orthogonalLoop=1;jettySize=auto;html=1;strokeColor=#FF122A;" edge="1" parent="1">
          <mxGeometry relative="1" as="geometry">
            <mxPoint x="454.0588235294117" y="220" as="sourcePoint" />
            <mxPoint x="454" y="170" as="targetPoint" />
            <Array as="points">
              <mxPoint x="454" y="210" />
              <mxPoint x="454" y="210" />
            </Array>
          </mxGeometry>
        </mxCell>
        <mxCell id="taET0bbL3NS-2dQEBb5L-5" value="" style="edgeStyle=orthogonalEdgeStyle;rounded=0;orthogonalLoop=1;jettySize=auto;html=1;strokeColor=#FF122A;" edge="1" parent="1" source="taET0bbL3NS-2dQEBb5L-4" target="taET0bbL3NS-2dQEBb5L-2">
          <mxGeometry relative="1" as="geometry" />
        </mxCell>
        <mxCell id="taET0bbL3NS-2dQEBb5L-2" value="Category&lt;br&gt;-name&lt;br&gt;-color&lt;br&gt;-storage&lt;br&gt;-/numberOfItems" style="whiteSpace=wrap;html=1;rounded=0;strokeColor=#FF122A;" vertex="1" parent="1">
          <mxGeometry x="370" y="220" width="170" height="100" as="geometry" />
        </mxCell>
        <mxCell id="taET0bbL3NS-2dQEBb5L-1" value="Storage&lt;br&gt;-name&lt;br&gt;-color&lt;br&gt;-/numberOfItemCategories" style="rounded=0;whiteSpace=wrap;html=1;strokeColor=#FF122A;" vertex="1" parent="1">
          <mxGeometry x="370" y="110" width="180" height="60" as="geometry" />
        </mxCell>
        <mxCell id="taET0bbL3NS-2dQEBb5L-4" value="Item&lt;br&gt;-name&lt;br&gt;-expirationDate&lt;br&gt;-creationDate&lt;br&gt;-category&lt;br&gt;-photo" style="whiteSpace=wrap;html=1;rounded=0;strokeColor=#FF122A;" vertex="1" parent="1">
          <mxGeometry x="370" y="410" width="170" height="100" as="geometry" />
        </mxCell>
        <mxCell id="taET0bbL3NS-2dQEBb5L-6" value="Item&lt;br&gt;-id&lt;br&gt;-name&lt;br&gt;-expirationDate&lt;br&gt;-creationDate&lt;br&gt;-description&lt;br&gt;-amount&lt;br&gt;-notificationEnable&lt;br&gt;-notificationOptions" style="whiteSpace=wrap;html=1;rounded=0;" vertex="1" parent="1">
          <mxGeometry x="60" y="200" width="170" height="150" as="geometry" />
        </mxCell>
        <mxCell id="taET0bbL3NS-2dQEBb5L-10" style="edgeStyle=orthogonalEdgeStyle;rounded=0;orthogonalLoop=1;jettySize=auto;html=1;exitX=1;exitY=0.5;exitDx=0;exitDy=0;" edge="1" parent="1" source="taET0bbL3NS-2dQEBb5L-7" target="taET0bbL3NS-2dQEBb5L-6">
          <mxGeometry relative="1" as="geometry" />
        </mxCell>
        <mxCell id="taET0bbL3NS-2dQEBb5L-7" value="Tag&lt;br&gt;-id&lt;br&gt;-name&lt;br&gt;-color" style="whiteSpace=wrap;html=1;rounded=0;" vertex="1" parent="1">
          <mxGeometry x="-190" y="395" width="170" height="100" as="geometry" />
        </mxCell>
        <mxCell id="taET0bbL3NS-2dQEBb5L-8" value="ItemModel&lt;br&gt;-id&lt;br&gt;-name&lt;br&gt;-expiryDays&lt;br&gt;-creationDate&lt;br&gt;-amount&lt;br&gt;-notificationEnable&lt;br&gt;-notificationOptions" style="whiteSpace=wrap;html=1;rounded=0;" vertex="1" parent="1">
          <mxGeometry x="10" y="590" width="170" height="150" as="geometry" />
        </mxCell>
        <mxCell id="taET0bbL3NS-2dQEBb5L-11" style="edgeStyle=orthogonalEdgeStyle;rounded=0;orthogonalLoop=1;jettySize=auto;html=1;exitX=1;exitY=0.5;exitDx=0;exitDy=0;entryX=0;entryY=0.5;entryDx=0;entryDy=0;" edge="1" parent="1" source="taET0bbL3NS-2dQEBb5L-9" target="taET0bbL3NS-2dQEBb5L-6">
          <mxGeometry relative="1" as="geometry" />
        </mxCell>
        <mxCell id="taET0bbL3NS-2dQEBb5L-9" value="Photo&lt;br&gt;-id&lt;br&gt;-thumbnail" style="whiteSpace=wrap;html=1;rounded=0;" vertex="1" parent="1">
          <mxGeometry x="-210" y="225" width="170" height="100" as="geometry" />
        </mxCell>
        <mxCell id="taET0bbL3NS-2dQEBb5L-16" value="" style="edgeStyle=orthogonalEdgeStyle;rounded=0;orthogonalLoop=1;jettySize=auto;html=1;strokeColor=#FF122A;" edge="1" parent="1" source="taET0bbL3NS-2dQEBb5L-14" target="taET0bbL3NS-2dQEBb5L-4">
          <mxGeometry relative="1" as="geometry" />
        </mxCell>
        <mxCell id="taET0bbL3NS-2dQEBb5L-14" value="Photo&lt;br&gt;-id&lt;br&gt;-thumbnail" style="whiteSpace=wrap;html=1;rounded=0;strokeColor=#FF122A;" vertex="1" parent="1">
          <mxGeometry x="370" y="585" width="170" height="100" as="geometry" />
        </mxCell>
        <mxCell id="taET0bbL3NS-2dQEBb5L-18" value="" style="edgeStyle=orthogonalEdgeStyle;rounded=0;orthogonalLoop=1;jettySize=auto;html=1;" edge="1" parent="1" source="taET0bbL3NS-2dQEBb5L-17" target="taET0bbL3NS-2dQEBb5L-1">
          <mxGeometry relative="1" as="geometry" />
        </mxCell>
        <mxCell id="taET0bbL3NS-2dQEBb5L-17" value="StorageSelectionView&lt;br&gt;-storages" style="rounded=0;whiteSpace=wrap;html=1;strokeColor=#3333FF;" vertex="1" parent="1">
          <mxGeometry x="370" y="-30" width="180" height="60" as="geometry" />
        </mxCell>
        <mxCell id="taET0bbL3NS-2dQEBb5L-21" value="" style="edgeStyle=orthogonalEdgeStyle;rounded=0;orthogonalLoop=1;jettySize=auto;html=1;strokeColor=#FF122A;" edge="1" parent="1" source="taET0bbL3NS-2dQEBb5L-19" target="taET0bbL3NS-2dQEBb5L-17">
          <mxGeometry relative="1" as="geometry" />
        </mxCell>
        <mxCell id="taET0bbL3NS-2dQEBb5L-19" value="CategoryList&lt;br&gt;-categories" style="rounded=0;whiteSpace=wrap;html=1;strokeColor=#3333FF;" vertex="1" parent="1">
          <mxGeometry x="620" y="-30" width="180" height="60" as="geometry" />
        </mxCell>
        <mxCell id="taET0bbL3NS-2dQEBb5L-22" value="" style="edgeStyle=orthogonalEdgeStyle;rounded=0;orthogonalLoop=1;jettySize=auto;html=1;strokeColor=#FF122A;" edge="1" parent="1" source="taET0bbL3NS-2dQEBb5L-20" target="taET0bbL3NS-2dQEBb5L-19">
          <mxGeometry relative="1" as="geometry" />
        </mxCell>
        <mxCell id="taET0bbL3NS-2dQEBb5L-20" value="ItemList&lt;br&gt;-items" style="rounded=0;whiteSpace=wrap;html=1;strokeColor=#3333FF;" vertex="1" parent="1">
          <mxGeometry x="840" y="-30" width="180" height="60" as="geometry" />
        </mxCell>
      </root>
    </mxGraphModel>
  </diagram>
</mxfile>
